<?xml version="1.0" standalone="no"?>
<!DOCTYPE svg PUBLIC "-//W3C//DTD SVG 20010904//EN"
 "http://www.w3.org/TR/2001/REC-SVG-20010904/DTD/svg10.dtd">
<svg version="1.0" xmlns="http://www.w3.org/2000/svg"
 width="512.000000pt" height="512.000000pt" viewBox="0 0 512.000000 512.000000"
 preserveAspectRatio="xMidYMid meet">

<g transform="translate(0.000000,512.000000) scale(0.100000,-0.100000)"
fill="#000000" stroke="none">
<path d="M1187 5099 c-25 -13 -45 -34 -58 -62 l-21 -43 36 -527 36 -528 -50
-82 c-55 -91 -95 -195 -110 -290 -5 -34 -9 -147 -8 -252 2 -204 -8 -290 -49
-450 -53 -203 -127 -352 -277 -554 -226 -305 -311 -606 -262 -931 123 -813
1101 -1417 2231 -1377 1070 38 1926 614 2040 1374 49 326 -35 629 -257 928
-140 189 -199 298 -257 476 -59 184 -85 387 -75 584 11 197 -23 339 -116 492
l-50 82 36 528 36 527 -21 43 c-33 69 -119 101 -188 71 -15 -7 -192 -158 -392
-336 -289 -257 -368 -322 -385 -318 -227 55 -656 55 -922 1 -29 -7 -50 10
-395 317 -200 177 -377 329 -392 336 -40 17 -86 14 -130 -9z m410 -629 l142
-125 -93 -46 c-51 -26 -111 -59 -135 -73 -24 -15 -44 -26 -46 -24 -3 4 -25
314 -25 361 0 21 4 37 8 35 5 -1 72 -59 149 -128z m2083 93 c0 -50 -22 -357
-26 -362 -1 -2 -16 7 -33 18 -17 12 -77 45 -134 74 l-104 52 141 127 c78 70
144 127 149 127 4 1 7 -16 7 -36z m-919 -373 c503 -51 916 -291 1025 -595 15
-41 18 -88 19 -270 3 -292 24 -432 97 -655 61 -188 145 -342 292 -539 91 -122
146 -226 183 -348 23 -78 26 -104 26 -233 0 -129 -3 -155 -27 -234 -56 -184
-150 -330 -313 -487 -272 -261 -658 -431 -1143 -506 -162 -24 -558 -24 -720 0
-372 57 -686 172 -943 344 -114 76 -275 225 -347 321 -68 90 -133 219 -166
328 -24 79 -27 105 -27 234 0 129 3 155 26 233 38 124 91 224 195 365 145 197
224 348 291 555 65 203 97 454 85 668 -8 132 2 191 47 284 105 216 381 400
737 489 204 51 444 68 663 46z"/>
<path d="M1738 3549 c-64 -33 -78 -76 -78 -229 0 -111 3 -137 20 -170 23 -45
80 -80 130 -80 50 0 107 35 130 80 17 33 20 59 20 170 0 111 -3 137 -20 170
-37 73 -127 99 -202 59z"/>
<path d="M3238 3549 c-64 -33 -78 -76 -78 -229 0 -155 14 -196 80 -230 50 -25
90 -25 140 0 66 34 80 75 80 230 0 111 -3 137 -20 170 -37 73 -127 99 -202 59z"/>
<path d="M2395 3086 c-370 -72 -654 -335 -758 -703 -21 -77 -22 -89 -22 -708
l0 -630 23 -67 c57 -165 185 -293 351 -350 65 -23 71 -23 571 -23 500 0 506 0
571 23 166 57 294 185 351 350 l23 67 0 625 c0 623 0 625 -23 710 -94 342
-354 604 -687 691 -103 27 -301 34 -400 15z m300 -301 c240 -50 450 -260 500
-500 11 -54 15 -153 15 -429 l0 -358 -137 4 c-154 5 -210 19 -307 78 l-56 34
0 84 c0 103 -21 152 -80 182 -50 25 -90 25 -140 0 -58 -30 -80 -79 -80 -181 0
-93 1 -91 -92 -139 -82 -43 -166 -60 -295 -60 l-113 0 0 358 c0 408 5 447 71
582 82 167 259 306 439 344 86 19 189 19 275 1z m-25 -1492 c137 -68 202 -83
388 -90 l152 -6 0 -42 c0 -104 -71 -206 -165 -238 -73 -25 -897 -25 -970 0
-94 32 -165 134 -165 238 l0 42 153 5 c185 6 272 27 402 97 50 27 92 48 95 47
3 0 52 -25 110 -53z"/>
<path d="M2188 2379 c-43 -22 -78 -81 -78 -129 0 -17 9 -49 20 -70 23 -45 80
-80 130 -80 76 0 150 74 150 150 0 50 -35 107 -80 130 -49 25 -94 25 -142 -1z"/>
<path d="M2788 2379 c-43 -22 -78 -81 -78 -129 0 -50 35 -107 80 -130 21 -11
53 -20 70 -20 76 0 150 74 150 150 0 50 -35 107 -80 130 -49 25 -94 25 -142
-1z"/>
</g>
</svg>
