<?xml version="1.0" standalone="no"?>
<!DOCTYPE svg PUBLIC "-//W3C//DTD SVG 20010904//EN"
 "http://www.w3.org/TR/2001/REC-SVG-20010904/DTD/svg10.dtd">
<svg version="1.0" xmlns="http://www.w3.org/2000/svg"
 width="512.000000pt" height="512.000000pt" viewBox="0 0 512.000000 512.000000"
 preserveAspectRatio="xMidYMid meet">

<g transform="translate(0.000000,512.000000) scale(0.100000,-0.100000)"
fill="#000000" stroke="none">
<path d="M3635 4734 c-130 -25 -189 -46 -800 -286 -335 -132 -767 -302 -960
-378 -192 -75 -674 -265 -1070 -420 -396 -156 -732 -291 -746 -301 -61 -43
-60 -21 -57 -776 l3 -688 22 -31 c13 -17 40 -39 60 -49 21 -9 57 -26 81 -37
65 -31 138 -108 175 -185 30 -63 32 -76 32 -173 0 -97 -2 -110 -32 -173 -39
-83 -111 -155 -190 -192 -32 -15 -69 -32 -81 -38 -13 -6 -33 -25 -45 -42 -21
-28 -22 -43 -25 -255 -3 -253 2 -274 67 -317 l34 -23 2457 0 2457 0 34 23 c69
46 69 47 69 482 0 361 -1 393 -19 425 -29 54 -59 71 -149 81 -103 11 -178 40
-242 90 -193 153 -209 431 -36 605 70 69 139 101 259 118 109 15 141 31 170
87 16 32 17 78 14 704 -3 652 -4 673 -26 770 -26 118 -84 268 -141 365 -181
311 -532 553 -889 615 -104 19 -331 18 -426 -1z m445 -309 c286 -77 528 -277
650 -538 54 -115 79 -226 87 -379 l6 -128 -1939 1 c-1066 0 -1930 4 -1919 8
11 5 423 167 915 361 1970 775 1762 702 1995 696 90 -3 163 -10 205 -21z
m-3121 -1397 c-248 -315 -144 -780 216 -957 129 -64 299 -82 435 -46 305 80
508 377 469 688 -15 123 -60 225 -149 340 l-22 27 1456 0 1456 0 0 -298 0
-297 -74 -23 c-108 -34 -190 -86 -286 -182 -140 -139 -204 -293 -204 -490 0
-215 87 -401 254 -544 63 -54 183 -117 259 -137 l51 -13 0 -213 0 -213 -374 0
-373 0 -6 76 c-18 209 -149 406 -334 502 -291 151 -638 63 -819 -209 -59 -89
-95 -191 -102 -291 l-5 -78 -1253 0 -1254 0 0 54 0 54 65 42 c127 83 230 217
281 365 33 96 44 258 24 358 -35 184 -151 357 -306 458 l-64 41 0 519 0 519
350 0 350 0 -41 -52z m637 -93 c68 -34 144 -116 168 -184 94 -264 -161 -519
-425 -425 -70 25 -150 99 -186 172 -39 80 -40 191 -1 273 79 170 280 244 444
164z m1989 -1947 c102 -53 171 -152 182 -263 l6 -55 -333 0 -333 0 6 58 c10
121 97 232 214 277 62 24 196 15 258 -17z"/>
<path d="M3035 2622 c-78 -27 -138 -66 -193 -127 -203 -222 -136 -568 135
-702 69 -34 85 -38 173 -41 120 -5 200 18 288 82 68 51 103 94 145 184 30 63
32 74 32 177 0 103 -2 114 -32 178 -60 125 -139 200 -260 244 -80 29 -212 31
-288 5z m231 -313 c72 -67 73 -160 0 -228 -34 -32 -119 -41 -164 -17 -100 52
-104 197 -7 258 44 28 135 21 171 -13z"/>
<path d="M1745 1483 c-63 -16 -123 -106 -111 -166 28 -139 204 -174 276 -55
67 110 -40 252 -165 221z"/>
</g>
</svg>
