<?xml version="1.0" standalone="no"?>
<!DOCTYPE svg PUBLIC "-//W3C//DTD SVG 20010904//EN"
 "http://www.w3.org/TR/2001/REC-SVG-20010904/DTD/svg10.dtd">
<svg version="1.0" xmlns="http://www.w3.org/2000/svg"
 width="512.000000pt" height="512.000000pt" viewBox="0 0 512.000000 512.000000"
 preserveAspectRatio="xMidYMid meet">

<g transform="translate(0.000000,512.000000) scale(0.100000,-0.100000)"
fill="#000000" stroke="none">
<path d="M2078 5109 c-95 -14 -243 -69 -330 -122 -97 -60 -217 -172 -273 -255
l-40 -60 -90 -11 c-250 -32 -467 -140 -643 -320 -145 -149 -253 -368 -281
-576 -7 -48 -17 -83 -25 -87 -45 -25 -123 -98 -163 -151 -83 -112 -123 -232
-123 -367 1 -90 11 -144 46 -228 l26 -62 -30 -118 c-161 -615 -141 -1249 55
-1712 151 -355 410 -633 753 -808 63 -33 150 -82 194 -110 193 -127 441 -155
650 -74 104 41 178 93 291 208 150 152 267 218 465 261 117 25 427 25 549 0
47 -9 88 -14 92 -10 13 15 59 229 70 332 12 99 5 224 -18 333 l-5 28 66 0
c129 0 314 58 415 129 l28 21 82 -30 c402 -147 844 0 1075 357 97 151 140 298
140 488 0 140 -14 217 -60 331 l-26 65 26 43 c34 59 73 178 81 251 12 118 -21
255 -90 370 -35 58 -35 59 -24 117 39 198 -48 428 -214 566 -52 42 -158 102
-183 102 -7 0 -33 39 -58 88 -25 48 -67 113 -93 144 -223 267 -605 346 -917
189 l-79 -40 -54 49 c-59 54 -200 130 -279 150 -47 12 -51 16 -89 84 -56 100
-224 266 -327 324 -180 102 -388 141 -590 111z m328 -324 c84 -28 188 -92 243
-149 19 -20 33 -37 30 -39 -2 -2 -36 -16 -76 -31 -187 -71 -334 -215 -418
-407 l-28 -66 -71 -7 c-208 -19 -373 -99 -510 -247 -74 -80 -144 -209 -171
-314 -35 -136 -29 -302 16 -432 l19 -56 -91 -95 c-357 -373 -586 -801 -671
-1252 -19 -95 -22 -151 -22 -325 0 -229 11 -321 64 -510 l28 -100 -45 50
c-180 201 -298 489 -344 840 -15 115 -15 439 0 575 30 267 94 538 146 622 l33
52 -48 62 c-61 80 -84 147 -78 228 11 126 90 223 223 271 l75 28 0 97 c0 232
68 406 220 561 159 161 377 242 604 223 l84 -7 51 106 c41 87 64 119 121 176
163 163 398 219 616 146z m555 -475 c144 -27 247 -110 343 -275 32 -55 60
-102 62 -105 3 -2 49 41 102 97 53 55 117 112 142 126 101 58 252 73 363 36
165 -55 270 -177 311 -363 l16 -72 80 -12 c183 -26 284 -134 285 -302 0 -66
-4 -84 -36 -151 l-37 -77 69 -68 c84 -83 112 -142 112 -235 0 -93 -33 -162
-118 -242 l-66 -63 55 -88 c66 -106 90 -166 106 -269 38 -250 -95 -504 -321
-616 -221 -109 -430 -89 -652 61 l-59 40 -72 -73 c-39 -41 -94 -86 -122 -101
-169 -91 -363 -72 -512 50 -37 29 -46 33 -57 21 -39 -42 -175 -201 -175 -205
0 -3 22 -32 49 -64 106 -127 151 -278 143 -477 l-2 -43 -147 0 c-241 0 -427
-38 -612 -125 -126 -60 -207 -120 -326 -241 -99 -100 -162 -143 -232 -159 -40
-8 -39 -13 -18 152 39 293 111 539 232 796 l46 97 229 0 229 0 -3 148 -3 147
-137 5 -137 5 78 108 c42 59 119 156 169 216 109 127 379 395 506 501 l89 74
219 -73 c121 -40 221 -71 222 -69 10 12 93 279 88 282 -4 2 -52 18 -107 36
-55 18 -104 36 -108 40 -9 8 161 121 296 195 48 27 87 52 87 56 0 21 -120 259
-131 259 -39 0 -438 -251 -631 -397 l-108 -81 -9 36 c-6 20 -26 102 -46 182
-20 80 -37 150 -40 156 -2 8 -49 0 -149 -24 -82 -21 -145 -41 -143 -47 2 -5
32 -125 66 -265 l63 -255 -182 -184 c-99 -101 -182 -182 -184 -180 -2 2 -20
54 -40 116 l-37 111 -142 -48 c-78 -26 -141 -51 -141 -56 1 -5 32 -101 69
-214 l68 -205 -89 -135 c-90 -138 -219 -378 -275 -511 -98 -235 -175 -512
-204 -734 -9 -72 -20 -143 -24 -160 l-6 -29 -58 57 c-100 100 -224 383 -279
637 -19 90 -22 134 -22 305 0 169 4 216 23 305 68 316 220 622 448 905 78 97
257 278 356 360 l48 40 -51 75 c-77 115 -94 166 -94 285 1 79 5 112 23 157 48
124 151 224 276 269 83 31 199 29 328 -4 53 -13 97 -24 97 -23 1 1 7 59 15
130 12 112 18 139 49 202 90 181 289 281 487 244z"/>
</g>
</svg>
