<?xml version="1.0" standalone="no"?>
<!DOCTYPE svg PUBLIC "-//W3C//DTD SVG 20010904//EN"
 "http://www.w3.org/TR/2001/REC-SVG-20010904/DTD/svg10.dtd">
<svg version="1.0" xmlns="http://www.w3.org/2000/svg"
 width="512.000000pt" height="512.000000pt" viewBox="0 0 512.000000 512.000000"
 preserveAspectRatio="xMidYMid meet">

<g transform="translate(0.000000,512.000000) scale(0.100000,-0.100000)"
fill="#000000" stroke="none">
<path d="M1810 4699 c-628 -65 -1197 -376 -1525 -834 -129 -180 -235 -431
-270 -640 -14 -88 -16 -174 -12 -705 4 -671 3 -661 77 -883 151 -449 533 -875
976 -1087 205 -98 370 -135 594 -135 148 0 175 3 263 28 190 52 299 104 625
296 433 255 503 280 962 351 319 49 457 83 653 161 465 186 797 467 913 776
51 135 54 176 54 719 0 586 -2 601 -80 759 -148 297 -463 522 -1090 778 -596
244 -1074 372 -1555 417 -129 12 -463 11 -585 -1z m715 -313 c477 -73 933
-213 1500 -461 573 -251 836 -518 788 -801 -41 -236 -270 -470 -625 -639 -219
-104 -429 -163 -723 -205 -315 -45 -469 -82 -642 -156 -125 -53 -171 -78 -428
-230 -320 -188 -448 -248 -605 -280 -328 -66 -747 106 -1065 438 -577 601
-565 1356 31 1889 92 82 233 179 354 243 180 95 448 181 645 205 50 6 101 13
115 15 61 11 560 -3 655 -18z m2293 -2013 c-4 -139 -9 -178 -26 -226 -66 -179
-248 -363 -497 -499 -254 -138 -473 -206 -850 -263 -474 -71 -621 -125 -1090
-405 -371 -221 -533 -279 -753 -267 -141 7 -271 42 -415 110 -173 82 -282 161
-438 317 -198 198 -321 392 -393 618 -27 86 -56 241 -56 300 l0 34 44 -59
c185 -246 419 -442 681 -573 385 -191 697 -207 1079 -53 127 51 207 92 468
245 243 141 410 221 528 252 52 14 226 48 385 76 456 78 633 128 871 246 137
67 299 175 394 262 30 28 59 51 64 52 4 0 6 -75 4 -167z"/>
<path d="M1568 3870 c-298 -54 -552 -270 -649 -553 -153 -443 85 -922 531
-1070 388 -130 820 50 1005 418 66 132 88 223 88 375 1 249 -83 445 -262 612
-112 105 -215 162 -367 204 -68 18 -276 27 -346 14z m254 -301 c124 -26 248
-107 321 -211 58 -83 85 -152 99 -247 22 -150 -31 -315 -138 -430 -109 -118
-235 -173 -394 -173 -115 1 -199 24 -286 80 -121 79 -219 222 -243 356 -32
176 22 349 149 476 131 131 314 186 492 149z"/>
</g>
</svg>
