<?xml version="1.0" standalone="no"?>
<!DOCTYPE svg PUBLIC "-//W3C//DTD SVG 20010904//EN"
 "http://www.w3.org/TR/2001/REC-SVG-20010904/DTD/svg10.dtd">
<svg version="1.0" xmlns="http://www.w3.org/2000/svg"
 width="512.000000pt" height="512.000000pt" viewBox="0 0 512.000000 512.000000"
 preserveAspectRatio="xMidYMid meet">

<g transform="translate(0.000000,512.000000) scale(0.100000,-0.100000)"
fill="#000000" stroke="none">
<path d="M1640 4854 c-72 -259 -75 -273 -74 -374 0 -71 6 -119 17 -147 l16
-43 -760 -2091 c-418 -1150 -758 -2093 -756 -2096 3 -2 230 86 506 197 276
110 503 200 505 200 2 0 6 -30 9 -68 9 -96 31 -161 79 -232 97 -147 290 -226
460 -191 182 38 340 207 355 382 6 59 7 61 32 55 167 -37 326 3 436 111 109
108 135 181 142 401 6 154 7 164 27 173 12 4 212 82 446 173 234 90 587 228
784 305 l360 141 55 -16 c41 -13 79 -15 155 -11 90 5 128 14 355 86 140 44
255 82 256 83 7 10 -17 414 -30 508 -78 557 -307 1091 -655 1530 -102 129
-371 399 -501 502 -389 310 -842 522 -1330 622 -200 41 -339 56 -584 63 l-231
6 -74 -269z m595 -55 c825 -94 1579 -563 2048 -1274 252 -383 435 -927 449
-1334 l3 -83 -140 -44 c-117 -37 -150 -44 -202 -41 -52 2 -69 8 -100 34 -59
47 -73 80 -93 220 -10 71 -26 160 -34 198 -207 904 -909 1591 -1813 1774 -56
12 -158 27 -227 35 -145 16 -187 33 -230 94 -46 65 -45 111 5 291 l42 153 101
-6 c56 -4 142 -12 191 -17z m-338 -779 c28 -10 102 -24 165 -30 228 -22 468
-84 650 -167 l78 -36 -54 -58 c-184 -198 -207 -522 -55 -755 83 -127 229 -232
374 -269 76 -19 234 -19 310 0 88 22 196 80 264 141 32 30 61 54 64 54 7 0 75
-152 107 -241 40 -107 75 -246 95 -371 29 -185 36 -222 56 -267 11 -24 17 -46
15 -48 -3 -4 -659 -263 -802 -318 l-61 -23 1 107 c1 126 -12 187 -66 301 -80
167 -258 306 -443 345 -236 49 -480 -35 -633 -218 -57 -68 -118 -194 -137
-282 -65 -309 117 -637 410 -740 l70 -24 3 -128 c2 -117 0 -132 -20 -172 -33
-63 -67 -86 -133 -86 -90 0 -143 57 -152 165 l-6 60 -148 0 -149 0 0 -279 c0
-272 0 -279 -23 -312 -61 -91 -181 -89 -251 5 -20 26 -21 44 -27 394 -6 359
-6 369 -33 470 -31 117 -71 218 -121 308 -42 75 -140 208 -184 248 -17 17 -31
35 -31 41 0 12 266 744 273 751 2 3 34 -11 69 -30 87 -48 200 -76 307 -76 183
0 318 57 452 190 132 131 190 269 191 454 1 180 -58 324 -186 452 -111 110
-222 169 -361 190 -37 5 -45 10 -40 23 4 9 24 65 46 125 42 116 46 126 57 126
4 0 30 -9 59 -20z m1403 -592 c89 -87 210 -226 210 -243 0 -25 -64 -107 -106
-136 -62 -43 -116 -59 -195 -59 -129 0 -229 60 -289 171 -80 151 -36 332 104
426 l48 33 76 -60 c43 -32 111 -92 152 -132z m-1467 8 c207 -101 255 -389 93
-551 -70 -70 -131 -97 -231 -103 -98 -5 -170 19 -238 78 l-45 40 99 272 c55
150 102 279 104 287 9 24 152 10 218 -23z m773 -1370 c123 -56 197 -174 198
-316 0 -61 -5 -86 -27 -135 -127 -275 -500 -279 -634 -7 -24 49 -28 69 -28
142 0 71 4 94 26 141 35 73 85 128 150 164 70 38 101 45 185 41 50 -2 87 -10
130 -30z m-1649 -623 c94 -147 133 -281 140 -478 l5 -140 -251 -99 c-138 -55
-253 -97 -256 -94 -7 6 308 868 317 868 5 0 25 -26 45 -57z"/>
</g>
</svg>
