<?xml version="1.0" standalone="no"?>
<!DOCTYPE svg PUBLIC "-//W3C//DTD SVG 20010904//EN"
 "http://www.w3.org/TR/2001/REC-SVG-20010904/DTD/svg10.dtd">
<svg version="1.0" xmlns="http://www.w3.org/2000/svg"
 width="512.000000pt" height="512.000000pt" viewBox="0 0 512.000000 512.000000"
 preserveAspectRatio="xMidYMid meet">

<g transform="translate(0.000000,512.000000) scale(0.100000,-0.100000)"
fill="#000000" stroke="none">
<path d="M3084 5109 c-370 -62 -658 -364 -692 -724 -4 -44 -12 -79 -17 -78 -6
0 -57 9 -114 18 -126 21 -321 17 -425 -10 -38 -10 -112 -40 -165 -67 -53 -27
-145 -68 -206 -90 -563 -206 -993 -584 -1213 -1064 -137 -299 -193 -568 -193
-927 0 -211 18 -369 62 -547 219 -887 957 -1463 2047 -1597 188 -23 596 -23
784 0 1090 134 1828 710 2047 1597 80 325 84 716 11 1055 -76 351 -249 677
-495 934 -247 258 -556 448 -939 576 -72 24 -160 57 -196 74 -115 54 -209 74
-360 75 -77 0 -168 -5 -213 -13 -42 -8 -80 -11 -84 -7 -13 13 18 133 52 202
75 152 230 251 420 269 111 10 163 46 186 130 19 69 -28 162 -98 191 -35 15
-119 16 -199 3z m-847 -1120 c54 -11 107 -23 119 -26 19 -4 22 -14 27 -85 10
-127 65 -190 166 -190 59 0 102 21 137 68 24 31 28 47 32 119 l4 83 57 16
c132 36 314 37 422 1 104 -35 266 -182 324 -295 l14 -28 -42 -10 c-80 -20
-194 -25 -291 -12 -91 12 -97 11 -141 -10 -31 -15 -53 -35 -70 -65 -25 -42
-25 -45 -19 -182 7 -135 -8 -303 -26 -303 -10 0 -85 55 -146 106 -29 24 -75
75 -103 113 -58 77 -96 101 -166 101 -63 0 -94 -19 -153 -92 -65 -81 -122
-136 -197 -188 l-60 -41 -13 53 c-12 48 -15 148 -9 355 2 69 -14 100 -74 141
-33 23 -38 23 -174 17 -133 -7 -266 3 -301 23 -20 11 42 99 131 189 148 148
317 192 552 142z m1830 -426 c533 -400 768 -1081 622 -1806 -30 -152 -65 -250
-139 -402 -188 -380 -500 -652 -957 -834 -620 -246 -1446 -246 -2066 0 -357
142 -622 337 -823 607 -75 100 -191 329 -228 449 -98 317 -113 694 -40 1022
91 406 323 759 652 989 l61 42 -6 -34 c-16 -97 30 -160 147 -205 105 -41 249
-78 335 -85 143 -14 131 -5 138 -94 12 -151 69 -367 121 -456 33 -57 98 -91
158 -83 87 12 373 174 452 256 17 17 33 31 37 31 5 0 46 -30 92 -67 150 -120
347 -223 427 -223 47 0 106 29 131 63 48 66 111 283 130 450 l12 104 91 6
c168 12 426 89 479 145 48 50 60 121 32 189 -8 19 -15 37 -15 39 0 7 82 -47
157 -103z"/>
<path d="M824 2321 c-89 -41 -111 -103 -95 -278 25 -276 91 -474 226 -678 273
-410 816 -664 1481 -692 141 -6 154 -5 195 15 122 60 127 225 9 290 -27 16
-64 21 -170 27 -724 36 -1200 313 -1354 788 -33 100 -56 233 -56 322 -1 115
-30 172 -105 206 -50 23 -79 23 -131 0z"/>
</g>
</svg>
